<svg viewBox="0 0 155 40" fill="none" xmlns="http://www.w3.org/2000/svg"><path fill-rule="evenodd" clip-rule="evenodd" d="M40 20c0 11.046-8.954 20-20 20S0 31.046 0 20 8.954 0 20 0s20 8.954 20 20Z" fill="#fff"></path><path fill-rule="evenodd" clip-rule="evenodd" d="M19.14 18.814c-.09 2.303-1.284 4.277-3.013 5.355-.831.52-1.421 1.394-1.469 2.435l-.153 3.414c-.042.924-.743 1.648-1.594 1.648-.85 0-1.551-.726-1.591-1.651l-.154-3.537c-.045-1.037-.614-1.927-1.433-2.462-1.796-1.173-2.99-3.25-3.055-5.7-.06-2.29.128-4.724.485-7.019.131-.846.861-1.43 1.647-1.271.776.141 1.301.944 1.169 1.789-.262 1.687-.426 2.832-.44 4.898-.003.587.432 1.063.973 1.063.534 0 .985-.472.985-1.055l-.008-6.002c0-.943.774-1.69 1.668-1.532.703.125 1.189.843 1.189 1.616l.008 5.918c0 .583.433 1.055.97 1.055.538 0 .973-.474.97-1.06-.008-2.068-.177-3.213-.438-4.902-.133-.845.392-1.648 1.17-1.79.762-.154 1.515.426 1.646 1.273.382 2.462.566 5.063.468 7.517Zm8.36-9.648c3.89 0 5.833 5.835 5.833 9.69 0 2.084-1.137 3.881-2.697 4.944-.75.51-1.27 1.315-1.313 2.252l-.185 3.967c-.042.922-.763 1.644-1.638 1.647-.875-.003-1.595-.726-1.638-1.647l-.185-3.967c-.043-.937-.564-1.742-1.312-2.252-1.56-1.063-2.697-2.86-2.697-4.945 0-3.854 1.944-9.689 5.832-9.689Z" fill="#E52535"></path><path d="M57.604 35.72c4.704 0 8.008-2.912 8.008-7.112V14.16h-3.976v1.456h-.056c-1.064-1.12-2.828-1.736-4.928-1.736-4.508 0-7.84 3.36-7.84 7.7 0 4.508 3.416 7.812 7.98 7.812 2.044 0 3.752-.644 4.788-1.792h.056v1.064c0 2.016-1.736 3.5-4.032 3.5-2.184 0-3.444-.616-4.984-2.436l-2.968 2.464c1.764 2.296 4.536 3.528 7.952 3.528Zm-.336-9.968c-2.66 0-4.312-1.568-4.312-4.172 0-2.408 1.764-4.06 4.48-4.06 2.156 0 4.032 1.512 4.032 3.22v1.736c0 1.82-1.848 3.276-4.2 3.276Zm18.924 3.668c4.9 0 8.372-3.416 8.372-7.84 0-4.424-3.472-7.84-8.372-7.84-4.872 0-8.372 3.416-8.372 7.84 0 4.424 3.5 7.84 8.372 7.84Zm0-3.64c-2.576 0-4.228-1.792-4.228-4.2 0-2.408 1.652-4.2 4.228-4.2 2.576 0 4.228 1.792 4.228 4.2 0 2.408-1.652 4.2-4.228 4.2ZM88.755 29h4.144V17.688h5.544V14.16h-5.544v-1.008c0-.756.42-1.148 1.232-1.148h3.388V8.448h-3.892c-3.052 0-4.872 1.596-4.872 4.2v1.512h-3.556v3.528h3.556V29Zm18.371.42c4.9 0 8.372-3.416 8.372-7.84 0-4.424-3.472-7.84-8.372-7.84-4.872 0-8.373 3.416-8.373 7.84 0 4.424 3.501 7.84 8.373 7.84Zm0-3.64c-2.576 0-4.228-1.792-4.228-4.2 0-2.408 1.652-4.2 4.228-4.2 2.576 0 4.228 1.792 4.228 4.2 0 2.408-1.652 4.2-4.228 4.2Zm18.57 3.64c4.9 0 8.372-3.416 8.372-7.84 0-4.424-3.472-7.84-8.372-7.84-4.872 0-8.372 3.416-8.372 7.84 0 4.424 3.5 7.84 8.372 7.84Zm0-3.64c-2.576 0-4.228-1.792-4.228-4.2 0-2.408 1.652-4.2 4.228-4.2 2.576 0 4.228 1.792 4.228 4.2 0 2.408-1.652 4.2-4.228 4.2Zm18.234 3.64c2.156 0 3.892-.644 5.012-1.876h.056V29h3.836V8.56h-4.144v6.776h-.056c-1.148-1.036-2.856-1.596-4.816-1.596-4.536 0-7.924 3.36-7.924 7.84 0 4.592 3.332 7.84 8.036 7.84Zm.532-3.668c-2.688 0-4.424-1.652-4.424-4.172 0-2.492 1.792-4.2 4.424-4.2 2.296 0 4.228 1.456 4.228 3.22v1.876c0 1.82-1.876 3.276-4.228 3.276Z" fill="#fff"></path></svg>